Coordinates
version=1
nRows=8
nColumns=63
inDegrees=yes

Units are S.I. units (second, meters, Newtons, ...)
If the header above contains a line with 'inDegrees', this indicates whether rotational values are in degrees (yes) or radians (no).

endheader
time	pelvis_tilt	pelvis_list	pelvis_rotation	pelvis_tx	pelvis_ty	pelvis_tz	hip_flexion_r	hip_adduction_r	hip_rotation_r	knee_angle_r	knee_angle_r_beta	ankle_angle_r	subtalar_angle_r	mtp_angle_r	hip_flexion_l	hip_adduction_l	hip_rotation_l	knee_angle_l	knee_angle_l_beta	ankle_angle_l	subtalar_angle_l	mtp_angle_l	L5_S1_Flex_Ext	L5_S1_Lat_Bending	L5_S1_axial_rotation	L4_L5_Flex_Ext	L4_L5_Lat_Bending	L4_L5_axial_rotation	L3_L4_Flex_Ext	L3_L4_Lat_Bending	L3_L4_axial_rotation	L2_L3_Flex_Ext	L2_L3_Lat_Bending	L2_L3_axial_rotation	L1_L2_Flex_Ext	L1_L2_Lat_Bending	L1_L2_axial_rotation	L1_T12_Flex_Ext	L1_T12_Lat_Bending	L1_T12_axial_rotation	Abs_r3	Abs_r2	Abs_r1	Abs_t1	Abs_t2	neck_flexion	neck_bending	neck_rotation	arm_flex_r	arm_add_r	arm_rot_r	elbow_flex_r	pro_sup_r	wrist_flex_r	wrist_dev_r	arm_flex_l	arm_add_l	arm_rot_l	elbow_flex_l	pro_sup_l	wrist_flex_l	wrist_dev_l
      4.48148148	     12.30175153	    -25.15242874	    115.61965117	      0.28442171	      0.64314560	      0.98329967	     42.97661240	     -0.68154753	    -13.65516244	     32.78110501	      0.57213821	     27.17856479	    -14.50955240	      0.00000000	     48.60639108	     -0.17040019	     13.17280503	     37.31729392	      0.65130965	     30.84948969	     -2.51288256	      0.00000000	     -0.48735442	      0.83839956	     -0.95927196	     -0.90506589	      1.11507141	     -1.01922646	     -0.80067457	      2.03848468	     -1.01922646	     -0.55699736	      2.03848468	     -0.83936297	     -0.45255731	      1.70966437	     -0.77940847	     -0.27847431	      1.29868091	     -0.71945397	     -3.48112386	      9.48414346	     -5.33518287	      0.00000000	      0.00000000	     -2.05039923	      9.46250885	      6.58282262	    144.63091238	    -31.93456876	     50.53844550	    109.30033350	     83.97922825	      5.84769562	     22.44467878	      4.71441697	     -6.27997610	     23.03237203	     61.08308449	     88.96341159	    -25.47085361	     -7.33449031
      4.50000000	     12.51284290	    -25.46085361	    115.84333212	      0.28350145	      0.64358576	      0.98253398	     43.10019045	     -0.78376514	    -13.99409665	     32.47417080	      0.56678120	     26.95756305	    -14.22753079	      0.00000000	     48.67459223	     -0.05553290	     13.45430718	     36.85040413	      0.64316088	     30.61531634	     -2.73398201	      0.00000000	     -0.50666896	      0.86021521	     -1.11908856	     -0.94093493	      1.14408623	     -1.18903160	     -0.83240644	      2.09152726	     -1.18903160	     -0.57907196	      2.09152726	     -0.97920249	     -0.47049280	      1.75415085	     -0.90925946	     -0.28951064	      1.33247336	     -0.83931642	     -3.61908573	      9.73092649	     -6.22403486	      0.00000000	      0.00000000	     -0.81040376	      9.17881947	      8.63565770	    144.56132519	    -31.74257450	     46.06025995	    111.13170716	     82.68373148	      7.33865834	     20.65339570	      3.96082281	     -6.07414776	     21.47328038	     61.93434820	     88.99397137	    -24.57029347	     -6.75975356
      4.51851852	     12.87016238	    -25.68766611	    115.84951719	      0.28266933	      0.64405297	      0.98121268	     43.11593172	     -0.55143535	    -14.23735368	     32.02098058	      0.55887154	     26.66394087	    -13.97442798	      0.00000000	     48.70163617	     -0.22405407	     13.76716947	     36.47207451	      0.63655779	     30.50489907	     -3.10417832	      0.00000000	     -0.52492036	      0.89985427	     -1.16445173	     -0.97482960	      1.19680618	     -1.23722997	     -0.86239166	      2.18790568	     -1.23722997	     -0.59993148	      2.18790568	     -1.01889527	     -0.48744104	      1.83498283	     -0.94611703	     -0.29993949	      1.39387427	     -0.87333880	     -3.74945363	     10.17933150	     -6.47633120	      0.00000000	      0.00000000	      0.23554378	      8.51010974	      9.40271743	    144.99842593	    -31.60738357	     42.06457758	    113.85031100	     82.15934524	      7.25230750	     21.92386173	      3.46312835	     -5.87090958	     20.58615980	     62.57775763	     89.00066101	    -23.54889461	     -5.63039994
      4.53703704	     13.24415622	    -25.90953900	    115.77101119	      0.28186700	      0.64432808	      0.97963602	     43.16019256	     -0.22817664	    -14.30872763	     31.62637284	      0.55198434	     26.46586515	    -13.72011243	      0.00000000	     48.72722302	     -0.45922102	     14.03434094	     36.15043915	      0.63094419	     30.47942736	     -3.60165562	      0.00000000	     -0.52466776	      0.94250208	     -1.18876598	     -0.97436049	      1.25352776	     -1.26306385	     -0.86197666	      2.29159955	     -1.26306385	     -0.59964278	      2.29159955	     -1.04017023	     -0.48720648	      1.92195024	     -0.96587236	     -0.29979516	      1.45993572	     -0.89157448	     -3.74764933	     10.66177200	     -6.61155974	      0.00000000	      0.00000000	      0.79327767	      7.72573283	      9.52866009	    145.32515191	    -31.40571429	     38.16098951	    116.79239984	     81.96594589	      6.89088607	     24.72104393	      2.99014608	     -5.66988940	     19.88295697	     62.94549001	     88.98675179	    -22.58370440	     -4.49253168
      4.55555556	     13.49826817	    -26.12216069	    115.55443086	      0.28110141	      0.64444886	      0.97794274	     43.22273193	      0.07278725	    -14.21471036	     31.32625550	      0.54674630	     26.41170949	    -13.49453849	      0.00000000	     48.69701767	     -0.65901053	     14.27334090	     35.87970501	      0.62621899	     30.50214598	     -4.12639405	      0.00000000	     -0.51118140	      0.97535531	     -1.21224209	     -0.94931499	      1.29722256	     -1.28800722	     -0.83981993	      2.37147889	     -1.28800722	     -0.58422923	      2.37147889	     -1.06071183	     -0.47468305	      1.98894454	     -0.98494670	     -0.29208905	      1.51082537	     -0.90918157	     -3.65131765	     11.03341430	     -6.74212685	      0.00000000	      0.00000000	      0.74956414	      7.15583039	      9.54366875	    145.08900878	    -31.10710702	     34.12077236	    119.75572519	     82.27290684	      6.79070662	     28.73020605	      2.43849011	     -5.46687622	     19.09934208	     63.11366896	     88.98910980	    -21.60544001	     -3.63468548
      4.57407407	     13.94064925	    -26.16499086	    115.25934910	      0.28030477	      0.64467921	      0.97606279	     43.14698524	      0.67579720	    -14.10441931	     30.86822065	      0.53875208	     26.44890651	    -13.11742647	      0.00000000	     48.63186462	     -1.14127850	     14.51526551	     35.71805591	      0.62339768	     30.66168833	     -4.66400507	      0.00000000	     -0.48933244	      1.03184062	     -1.17943731	     -0.90873927	      1.37234802	     -1.25315214	     -0.80392426	      2.50881728	     -1.25315214	     -0.55925804	      2.50881728	     -1.03200765	     -0.45439410	      2.10412939	     -0.95829281	     -0.27960455	      1.59832112	     -0.88457798	     -3.49525267	     11.67238743	     -6.55967649	      0.00000000	      0.00000000	      0.23230523	      6.80187581	      8.99425339	    144.39780317	    -31.24530482	     30.63926457	    122.25001225	     82.96049694	      6.66866837	     31.10651584	      2.21146941	     -5.22014027	     18.88712945	     62.74313838	     88.97605238	    -21.36319876	     -3.48259528
      4.59259259	     13.95933379	    -26.24561475	    114.76501882	      0.27958062	      0.64498003	      0.97461299	     43.15179616	      0.94109072	    -13.75092808	     30.75307397	      0.53674240	     26.72881018	    -12.65171162	      0.00000000	     48.38590409	     -1.32947055	     14.56870367	     35.40877821	      0.61799976	     30.78236645	     -5.39944537	      0.00000000	     -0.47909957	      1.04868477	     -1.22906071	     -0.88973581	      1.39475074	     -1.30587700	     -0.78711268	      2.54977215	     -1.30587700	     -0.54756290	      2.54977215	     -1.07542812	     -0.44489186	      2.13847798	     -0.99861182	     -0.27375749	      1.62441271	     -0.92179553	     -3.42216032	     11.86293185	     -6.83566693	      0.00000000	      0.00000000	     -0.49885203	      6.78669632	      9.15122232	    142.54236571	    -31.09346742	     26.78160549	    124.31792590	     85.36904909	      7.77744014	     32.82374226	      1.88503088	     -5.17295853	     18.18970981	     62.61562205	     88.98187832	    -21.56278261	     -4.07192915
      4.61111111	     14.11542631	    -26.13592574	    114.32351984	      0.27880287	      0.64535735	      0.97320910	     42.97816261	      1.37827686	    -13.51081992	     30.49608657	      0.53225712	     27.01550344	    -12.15203658	      0.00000000	     48.14337907	     -1.67551353	     14.65426670	     35.30342562	      0.61616101	     31.05277202	     -6.02079046	      0.00000000	     -0.46446936	      1.08538001	     -1.19257240	     -0.86256605	      1.44355541	     -1.26710818	     -0.76307672	      2.63899295	     -1.26710818	     -0.53084203	      2.63899295	     -1.04350085	     -0.43130625	      2.21330692	     -0.96896508	     -0.26539779	      1.68125363	     -0.89442930	     -3.31765821	     12.27803574	     -6.63272992	      0.00000000	      0.00000000	     -1.28242315	      7.10549202	      8.94466288	    140.40018731	    -31.42345759	     23.49525970	    125.83260123	     86.73201538	      9.23519554	     33.11870296	      2.11611616	     -5.25019804	     18.36509438	     62.44454902	     88.99495651	    -22.21913059	     -4.54839576
